<?xml version="1.0" standalone="no"?>
<!DOCTYPE svg PUBLIC "-//W3C//DTD SVG 20010904//EN"
 "http://www.w3.org/TR/2001/REC-SVG-20010904/DTD/svg10.dtd">
<svg version="1.0" xmlns="http://www.w3.org/2000/svg"
 width="512.000000pt" height="512.000000pt" viewBox="0 0 512.000000 512.000000"
 preserveAspectRatio="xMidYMid meet">

<g transform="translate(0.000000,512.000000) scale(0.100000,-0.100000)"
fill="#000000" stroke="none">
<path d="M310 4992 c-28 -11 -68 -40 -105 -77 -105 -105 -95 152 -95 -2355 0
-2067 1 -2198 17 -2244 23 -63 92 -140 157 -174 l51 -27 2225 0 2225 0 50 27
c60 32 114 87 146 148 l24 45 0 2225 0 2225 -27 51 c-36 68 -113 136 -178 157
-48 16 -217 17 -2249 16 -2027 0 -2199 -2 -2241 -17z m2364 -972 c20 -14 49
-43 64 -64 l27 -39 5 -558 c4 -439 8 -561 18 -571 10 -10 132 -14 571 -18
l557 -5 37 -25 c21 -14 50 -43 65 -64 24 -35 27 -49 27 -116 0 -65 -4 -82 -25
-113 -14 -21 -43 -50 -64 -65 l-39 -27 -558 -5 c-439 -4 -561 -8 -571 -18 -10
-10 -14 -132 -18 -571 l-5 -558 -27 -39 c-15 -21 -44 -50 -65 -64 -31 -21 -48
-25 -113 -25 -65 0 -82 4 -113 25 -21 14 -50 43 -65 64 l-27 39 -5 558 c-4
439 -8 561 -18 571 -10 10 -132 14 -571 18 l-557 5 -37 25 c-21 14 -50 43 -65
64 -24 35 -27 49 -27 117 0 70 3 81 30 120 17 23 50 53 74 66 l44 23 542 0
c451 0 544 2 561 14 18 14 19 35 24 574 l5 560 30 43 c45 64 104 91 186 87 50
-3 75 -10 103 -28z"/>
</g>
</svg>
