<?xml version="1.0" standalone="no"?>
<!DOCTYPE svg PUBLIC "-//W3C//DTD SVG 20010904//EN"
 "http://www.w3.org/TR/2001/REC-SVG-20010904/DTD/svg10.dtd">
<svg version="1.0" xmlns="http://www.w3.org/2000/svg"
 width="512.000000pt" height="512.000000pt" viewBox="0 0 512.000000 512.000000"
 preserveAspectRatio="xMidYMid meet">

<g transform="translate(0.000000,512.000000) scale(0.100000,-0.100000)"
fill="#000000" stroke="none">
<path d="M865 5113 c-224 -31 -406 -123 -571 -287 -136 -137 -218 -278 -266
-456 l-23 -85 -2 -1684 c-4 -1820 -5 -1768 48 -1923 108 -315 383 -569 704
-650 l90 -23 1715 0 1715 0 90 23 c321 81 596 335 704 650 53 155 52 103 48
1923 l-2 1684 -23 85 c-48 178 -130 319 -266 456 -137 136 -278 218 -456 266
l-85 23 -1695 1 c-932 1 -1708 -1 -1725 -3z m3369 -578 c145 -38 264 -157 301
-303 13 -51 15 -262 13 -1698 l-3 -1639 -22 -55 c-44 -107 -151 -210 -255
-247 -51 -17 -129 -18 -1708 -18 -1579 0 -1657 1 -1708 18 -104 37 -211 140
-255 247 l-22 55 -3 1639 c-2 1455 -1 1646 13 1700 37 143 154 262 295 300 84
22 3268 23 3354 1z"/>
<path d="M2343 3960 c-59 -36 -58 -20 -63 -590 l-5 -525 -525 -5 c-570 -5
-554 -4 -590 -63 -18 -29 -20 -51 -20 -217 0 -166 2 -188 20 -217 36 -59 20
-58 590 -63 l525 -5 5 -525 c5 -570 4 -554 63 -590 29 -18 51 -20 217 -20 166
0 188 2 217 20 59 36 58 20 63 590 l5 525 525 5 c570 5 554 4 590 63 18 29 20
51 20 217 0 166 -2 188 -20 217 -36 59 -20 58 -590 63 l-525 5 -5 525 c-5 570
-4 554 -63 590 -29 18 -51 20 -217 20 -166 0 -188 -2 -217 -20z"/>
</g>
</svg>
