<?xml version="1.0" standalone="no"?>
<!DOCTYPE svg PUBLIC "-//W3C//DTD SVG 20010904//EN"
 "http://www.w3.org/TR/2001/REC-SVG-20010904/DTD/svg10.dtd">
<svg version="1.0" xmlns="http://www.w3.org/2000/svg"
 width="512.000000pt" height="512.000000pt" viewBox="0 0 512.000000 512.000000"
 preserveAspectRatio="xMidYMid meet">

<g transform="translate(0.000000,512.000000) scale(0.100000,-0.100000)"
fill="#000000" stroke="none">
<path d="M1130 4625 c-303 -61 -541 -283 -627 -586 -17 -61 -18 -139 -18
-1479 0 -1340 1 -1418 18 -1479 87 -307 326 -528 635 -587 110 -21 2735 -21
2844 0 312 60 552 284 634 591 18 67 19 132 19 1475 0 1343 -1 1408 -19 1475
-82 307 -322 531 -634 591 -104 20 -2752 19 -2852 -1z m2801 -315 c131 -25
266 -124 328 -239 64 -121 61 -41 61 -1511 0 -1470 3 -1390 -61 -1511 -62
-115 -197 -214 -328 -239 -35 -6 -517 -10 -1375 -10 -1433 0 -1385 -1 -1495
55 -71 35 -163 125 -199 193 -65 122 -62 41 -62 1512 0 1471 -3 1390 62 1512
36 69 128 158 199 194 108 54 59 52 1490 53 864 1 1345 -3 1380 -9z"/>
<path d="M2495 3346 c-37 -17 -70 -52 -84 -89 -7 -17 -11 -127 -11 -282 l0
-254 -269 -3 c-254 -3 -271 -4 -297 -24 -53 -39 -69 -71 -69 -134 0 -63 16
-95 69 -134 26 -20 43 -21 296 -24 l269 -3 3 -269 c3 -253 4 -270 24 -296 39
-53 71 -69 134 -69 63 0 95 16 134 69 20 26 21 43 24 296 l3 269 269 3 c253 3
270 4 296 24 53 39 69 71 69 134 0 63 -16 95 -69 134 -26 20 -43 21 -296 24
l-269 3 -3 269 c-3 253 -4 270 -24 296 -11 15 -32 37 -46 47 -34 25 -113 32
-153 13z"/>
</g>
</svg>
