<?xml version="1.0" standalone="no"?>
<!DOCTYPE svg PUBLIC "-//W3C//DTD SVG 20010904//EN"
 "http://www.w3.org/TR/2001/REC-SVG-20010904/DTD/svg10.dtd">
<svg version="1.0" xmlns="http://www.w3.org/2000/svg"
 width="916.000000pt" height="980.000000pt" viewBox="0 0 916.000000 980.000000"
 preserveAspectRatio="xMidYMid meet">

<g transform="translate(0.000000,980.000000) scale(0.100000,-0.100000)"
fill="#000000" stroke="none">
<path d="M4426 9789 c-148 -22 -297 -79 -429 -165 -105 -69 -3743 -3706 -3811
-3811 -221 -340 -247 -810 -63 -1178 70 -142 165 -258 242 -298 39 -19 51 -20
340 -13 165 3 346 9 402 13 l103 6 3 -1759 3 -1759 21 -80 c50 -186 124 -316
258 -451 155 -157 317 -243 522 -279 112 -20 1401 -22 1465 -3 52 15 121 78
144 130 18 41 19 99 24 1203 l5 1160 22 53 c68 167 203 282 372 318 96 20 966
20 1062 0 169 -36 304 -151 372 -318 l22 -53 5 -1165 5 -1165 22 -41 c28 -53
91 -107 142 -122 62 -19 1343 -16 1452 3 208 36 380 125 525 269 118 119 210
276 256 441 l23 80 3 1767 2 1768 108 0 c59 0 239 -5 399 -12 344 -13 350 -12
428 65 300 301 372 870 165 1292 -27 55 -71 129 -99 165 -27 36 -877 891
-1888 1902 -1910 1908 -1888 1887 -2030 1949 -196 86 -403 116 -597 88z m324
-477 c31 -11 76 -30 100 -42 33 -16 550 -527 1879 -1853 1009 -1009 1848
-1854 1866 -1882 71 -109 112 -286 101 -430 -8 -96 -38 -215 -69 -270 l-23
-40 -449 0 c-442 0 -451 0 -509 -22 -76 -29 -118 -62 -142 -110 -18 -37 -19
-100 -24 -1918 l-5 -1880 -23 -59 c-69 -182 -228 -312 -412 -336 -41 -5 -296
-10 -567 -10 l-492 0 -4 1032 c-3 1020 -3 1034 -24 1113 -50 184 -135 334
-265 463 -123 124 -261 202 -446 255 -75 21 -91 22 -662 22 -579 0 -586 0
-670 -23 -312 -84 -567 -318 -672 -616 -58 -163 -58 -158 -58 -1248 l0 -999
-542 3 c-489 4 -548 6 -598 22 -155 51 -272 159 -334 310 l-21 51 -5 1885 -5
1885 -22 40 c-27 52 -58 79 -113 104 -91 40 -162 44 -582 38 l-398 -7 -25 50
c-48 94 -69 194 -69 325 0 134 15 206 66 320 31 68 70 109 1852 1893 1055
1056 1844 1839 1876 1861 72 48 122 70 195 87 79 18 223 11 295 -14z"/>
</g>
</svg>
