<?xml version="1.0" standalone="no"?>
<!DOCTYPE svg PUBLIC "-//W3C//DTD SVG 20010904//EN"
 "http://www.w3.org/TR/2001/REC-SVG-20010904/DTD/svg10.dtd">
<svg version="1.0" xmlns="http://www.w3.org/2000/svg"
 width="980.000000pt" height="980.000000pt" viewBox="0 0 980.000000 980.000000"
 preserveAspectRatio="xMidYMid meet">

<g transform="translate(0.000000,980.000000) scale(0.100000,-0.100000)"
fill="#000000" stroke="none">
<path d="M4776 9789 c-227 -23 -446 -112 -628 -258 -92 -73 -3872 -4005 -3951
-4109 -68 -91 -139 -229 -168 -327 -29 -100 -35 -242 -15 -329 39 -164 169
-328 317 -399 141 -68 157 -70 542 -75 l347 -3 0 -1462 c1 -804 5 -1520 10
-1592 15 -216 53 -361 146 -552 89 -184 227 -352 388 -470 82 -60 243 -138
351 -168 138 -39 264 -45 1097 -45 l768 0 2 1758 3 1757 23 48 c30 60 83 92
178 107 105 16 1436 9 1488 -9 21 -7 56 -29 77 -49 73 -70 69 49 69 -1884 l0
-1728 783 0 c446 0 827 4 888 10 273 26 489 129 690 329 232 233 364 537 389
896 5 72 9 788 10 1592 l0 1462 348 3 c384 5 400 7 541 75 54 26 94 56 151
112 202 200 235 471 91 766 -52 108 -123 205 -233 322 -341 359 -3639 3787
-3717 3864 -115 112 -196 173 -317 235 -198 100 -442 146 -668 123z"/>
</g>
</svg>
