<?xml version="1.0" standalone="no"?>
<!DOCTYPE svg PUBLIC "-//W3C//DTD SVG 20010904//EN"
 "http://www.w3.org/TR/2001/REC-SVG-20010904/DTD/svg10.dtd">
<svg version="1.0" xmlns="http://www.w3.org/2000/svg"
 width="500.000000pt" height="500.000000pt" viewBox="0 0 500.000000 500.000000"
 preserveAspectRatio="xMidYMid meet">

<g transform="translate(0.000000,500.000000) scale(0.100000,-0.100000)"
fill="#000000" stroke="none">
<path d="M2190 4965 c-63 -7 -151 -20 -195 -29 -44 -10 -114 -24 -155 -32 -41
-9 -91 -24 -110 -34 -19 -9 -51 -21 -70 -26 -19 -4 -37 -8 -40 -9 -3 -1 -16
-6 -30 -12 -14 -6 -44 -17 -67 -24 -24 -7 -43 -16 -43 -21 0 -4 -8 -8 -17 -8
-17 -1 -50 -16 -188 -88 -27 -15 -55 -27 -60 -27 -6 0 -24 -13 -40 -28 -17
-15 -39 -30 -49 -33 -57 -18 -291 -207 -432 -348 -114 -115 -263 -291 -277
-328 -3 -10 -11 -18 -16 -18 -5 0 -13 -9 -16 -20 -4 -11 -22 -44 -41 -73 -19
-28 -34 -56 -34 -61 0 -5 -6 -17 -14 -25 -16 -19 -86 -151 -86 -164 0 -9 -41
-102 -65 -150 -8 -16 -15 -36 -15 -46 0 -9 -4 -21 -9 -26 -5 -6 -21 -59 -35
-120 -14 -60 -30 -129 -36 -153 -5 -23 -10 -51 -10 -61 0 -11 -5 -32 -10 -47
-28 -73 -33 -608 -7 -684 3 -8 13 -51 22 -95 24 -120 65 -288 74 -305 4 -8 14
-36 22 -62 7 -27 17 -48 21 -48 4 0 8 -7 8 -16 0 -9 6 -28 14 -42 8 -15 24
-49 36 -77 38 -86 64 -137 97 -189 18 -28 33 -54 33 -58 0 -9 88 -140 99 -148
4 -3 18 -23 31 -45 13 -21 31 -46 40 -55 8 -9 40 -45 70 -80 30 -35 88 -95
127 -134 l73 -71 0 -81 c0 -44 -3 -84 -8 -88 -4 -4 -15 -83 -24 -174 -9 -92
-22 -192 -27 -222 -5 -30 -10 -89 -10 -131 -1 -70 1 -77 26 -101 16 -15 41
-32 57 -38 37 -14 133 -3 140 16 3 7 21 16 41 20 20 3 39 13 42 20 3 8 16 14
29 14 13 0 32 9 41 20 10 11 25 20 34 20 10 0 19 4 21 8 4 10 170 92 187 92 6
0 11 4 11 8 0 10 172 102 190 102 7 0 19 8 26 18 11 14 15 15 23 3 5 -8 19
-12 35 -9 15 3 29 1 32 -3 3 -5 13 -9 23 -9 10 0 47 -9 82 -19 35 -10 99 -27
142 -37 43 -10 83 -24 88 -31 8 -8 18 -9 36 -2 18 6 34 5 56 -5 18 -8 59 -15
92 -15 33 1 71 -3 85 -8 32 -11 438 -7 508 5 29 5 64 7 77 4 14 -2 31 0 38 6
6 6 30 13 52 17 117 19 369 82 407 102 15 7 29 13 30 13 8 -4 65 14 77 24 13
10 36 20 133 55 26 10 54 23 62 30 9 8 16 10 16 5 0 -5 6 -2 13 6 13 16 17 18
117 71 36 18 67 37 70 40 3 4 50 37 105 74 55 37 104 73 110 79 5 7 33 30 60
51 28 22 74 63 103 92 29 29 56 53 60 53 4 0 20 19 37 41 16 22 47 57 68 77
21 20 53 60 72 87 19 28 50 68 70 89 19 22 35 46 35 53 0 8 7 16 15 19 8 4 15
11 15 18 0 6 20 42 45 80 43 67 78 135 125 241 58 132 67 153 81 200 6 22 15
49 19 60 16 42 60 236 60 264 0 16 6 33 13 39 9 7 14 37 15 82 0 39 4 75 8 81
9 16 9 432 0 447 -4 7 -8 43 -8 80 -1 38 -6 73 -13 82 -7 8 -15 35 -18 60 -9
87 -71 307 -113 398 -13 29 -24 56 -24 59 0 22 -100 216 -159 308 -28 44 -57
91 -64 105 -6 13 -21 34 -32 46 -11 12 -24 28 -30 36 -78 105 -117 150 -215
248 -63 64 -133 129 -155 145 -22 16 -50 40 -62 52 -12 13 -27 23 -33 23 -5 0
-10 4 -10 8 0 4 -12 15 -27 24 -16 9 -37 24 -48 32 -82 65 -331 206 -362 206
-7 0 -13 6 -13 14 0 8 -15 17 -36 21 -21 3 -46 12 -58 20 -12 7 -37 16 -56 20
-19 4 -42 13 -50 20 -8 7 -34 16 -57 20 -22 3 -49 13 -60 20 -10 8 -30 15 -45
15 -14 0 -28 6 -30 12 -3 7 -20 13 -39 14 -19 1 -86 12 -149 24 -192 36 -226
40 -470 44 -158 3 -273 0 -350 -9z m641 -271 c8 -4 21 -9 29 -11 146 -21 180
-28 180 -35 0 -4 11 -8 24 -8 23 0 72 -13 111 -30 11 -5 40 -14 65 -21 25 -6
59 -18 77 -25 17 -8 34 -14 38 -14 4 0 26 -8 49 -19 23 -10 52 -24 66 -30 14
-6 43 -22 65 -36 22 -13 47 -27 55 -30 35 -15 57 -26 85 -45 17 -11 44 -27 60
-36 17 -9 53 -34 80 -55 28 -21 73 -55 100 -76 86 -65 243 -223 341 -344 52
-64 94 -121 94 -128 0 -6 4 -11 10 -11 5 0 16 -15 24 -32 15 -34 47 -89 56
-98 3 -3 11 -16 18 -30 6 -14 16 -32 21 -40 6 -8 20 -37 31 -65 31 -70 61
-135 77 -167 7 -14 13 -32 13 -40 0 -7 7 -26 15 -41 8 -16 17 -51 21 -78 4
-27 11 -52 15 -55 5 -3 7 -10 3 -15 -3 -5 -1 -15 5 -22 5 -7 13 -48 17 -92 4
-44 12 -86 18 -94 16 -20 15 -519 -1 -552 -6 -13 -15 -59 -18 -101 -4 -43 -11
-78 -17 -78 -6 0 -8 -7 -5 -15 4 -8 2 -17 -2 -19 -5 -3 -11 -29 -15 -58 -4
-29 -11 -57 -15 -63 -5 -5 -14 -32 -20 -59 -7 -27 -19 -58 -27 -70 -7 -11 -14
-28 -14 -37 0 -9 -7 -22 -15 -29 -8 -7 -15 -19 -15 -28 0 -22 -82 -185 -97
-195 -7 -4 -13 -13 -13 -20 0 -6 -18 -37 -40 -68 -22 -32 -40 -62 -40 -68 0
-6 -5 -11 -10 -11 -6 0 -14 -8 -17 -17 -16 -43 -286 -343 -308 -343 -6 0 -31
-20 -55 -45 -24 -25 -48 -45 -53 -45 -5 0 -30 -18 -56 -40 -26 -22 -51 -40
-55 -40 -4 0 -22 -10 -39 -23 -44 -31 -68 -45 -97 -59 -14 -7 -32 -17 -40 -24
-24 -19 -172 -94 -186 -94 -8 0 -29 -9 -49 -20 -20 -11 -44 -20 -53 -20 -10 0
-22 -4 -28 -9 -20 -20 -259 -89 -330 -95 -11 -1 -25 -5 -31 -9 -15 -9 -177
-27 -250 -27 -34 0 -65 -5 -68 -10 -8 -14 -232 -13 -240 0 -4 6 -40 11 -83 11
-89 -1 -217 15 -249 31 -11 6 -26 7 -32 3 -7 -4 -17 -2 -24 3 -7 5 -32 13 -57
17 -46 8 -133 35 -255 79 -38 14 -78 26 -88 26 -9 0 -106 -46 -215 -101 -365
-188 -358 -185 -349 -146 3 12 13 83 21 157 9 74 22 186 30 249 8 62 12 121 8
130 -3 9 -65 75 -136 146 -132 131 -256 274 -256 295 0 6 -7 13 -15 16 -8 4
-15 11 -15 16 0 5 -18 35 -40 65 -22 31 -40 62 -40 69 0 7 -6 17 -13 21 -18
11 -151 287 -163 338 -4 17 -11 35 -16 42 -17 22 -61 209 -84 358 -22 141 -15
547 10 655 10 41 27 113 38 160 11 47 26 95 34 107 8 12 14 29 14 38 0 9 9 35
20 57 11 23 20 47 20 53 0 13 80 174 130 265 17 30 55 86 83 124 29 38 57 76
62 85 32 51 142 170 240 261 109 101 216 190 228 190 3 0 42 25 86 55 44 30
109 69 143 86 35 16 70 34 78 40 40 25 161 76 235 99 39 12 79 25 90 30 11 4
40 13 65 20 25 7 54 16 65 21 22 9 187 38 280 50 81 10 588 4 606 -7z"/>
<path d="M1965 3198 c-22 -6 -42 -14 -45 -18 -3 -3 -20 -12 -37 -19 -18 -8
-33 -17 -33 -22 0 -5 -6 -9 -14 -9 -17 0 -121 -117 -130 -147 -4 -13 -12 -23
-18 -23 -6 0 -8 -3 -5 -6 4 -4 -7 -25 -23 -47 -17 -23 -30 -47 -30 -53 0 -7
-6 -17 -12 -21 -14 -9 -40 -51 -60 -95 -7 -16 -16 -28 -20 -28 -4 0 -8 -5 -8
-11 0 -6 -18 -36 -40 -68 -22 -31 -40 -60 -40 -63 0 -3 -16 -30 -35 -59 -19
-30 -35 -59 -35 -66 0 -7 -6 -16 -13 -20 -7 -4 -18 -19 -25 -33 -30 -57 -52
-94 -59 -99 -8 -6 -34 -51 -57 -98 -6 -13 -14 -23 -18 -23 -5 0 -8 -5 -8 -11
0 -6 -11 -25 -25 -43 -14 -18 -25 -36 -25 -41 0 -4 -23 -42 -51 -84 -39 -57
-53 -88 -57 -123 -4 -40 -1 -48 18 -58 25 -13 85 -6 97 13 5 7 22 19 38 27 17
8 32 17 35 20 5 5 38 27 135 89 22 14 42 29 43 34 2 4 7 7 12 7 7 0 214 133
245 157 6 4 29 20 53 36 23 15 61 39 85 54 23 16 44 30 47 33 42 42 116 70
184 70 96 0 116 -12 258 -149 211 -202 268 -255 294 -271 13 -8 27 -23 30 -32
3 -10 10 -18 15 -18 6 0 29 -15 52 -34 23 -19 56 -38 72 -42 17 -4 40 -14 53
-22 26 -17 201 -13 223 5 8 6 32 16 53 23 46 15 172 135 182 174 3 13 12 27
20 30 8 3 14 11 14 19 0 7 16 36 35 63 19 27 35 54 35 61 0 7 6 16 13 20 14 8
35 43 59 96 7 15 16 27 20 27 4 0 8 5 8 11 0 6 17 36 38 67 22 32 59 91 83
132 24 41 58 96 76 122 18 26 33 52 33 58 0 6 16 33 35 60 19 27 35 54 35 59
0 5 6 16 13 23 15 16 39 54 74 115 14 26 42 70 61 98 25 34 37 64 40 97 4 43
2 48 -22 59 -31 15 -95 -3 -122 -33 -10 -10 -23 -18 -31 -18 -7 0 -13 -4 -13
-10 0 -5 -5 -10 -12 -10 -6 0 -26 -11 -44 -25 -18 -14 -36 -25 -40 -25 -4 0
-15 -6 -23 -14 -18 -15 -75 -49 -133 -78 -20 -10 -40 -23 -43 -29 -4 -5 -17
-15 -28 -20 -12 -5 -49 -27 -82 -49 -33 -22 -67 -43 -75 -47 -8 -4 -40 -23
-70 -42 -196 -126 -263 -145 -345 -96 -22 13 -49 28 -60 33 -11 6 -31 22 -44
36 -14 14 -30 26 -37 26 -7 0 -14 4 -16 9 -4 11 -116 101 -126 101 -5 0 -19
11 -32 25 -12 13 -59 50 -103 82 -44 32 -94 70 -111 84 -50 42 -127 84 -178
97 -56 14 -148 14 -203 0z"/>
</g>
</svg>
