<?xml version="1.0" standalone="no"?>
<!DOCTYPE svg PUBLIC "-//W3C//DTD SVG 20010904//EN"
 "http://www.w3.org/TR/2001/REC-SVG-20010904/DTD/svg10.dtd">
<svg version="1.0" xmlns="http://www.w3.org/2000/svg"
 width="256.000000pt" height="256.000000pt" viewBox="0 0 256.000000 256.000000"
 preserveAspectRatio="xMidYMid meet">

<g transform="translate(0.000000,256.000000) scale(0.100000,-0.100000)"
fill="#000000" stroke="none">
<path d="M310 2432 c-28 -11 -68 -40 -105 -77 -92 -91 -95 -107 -95 -417 0
-163 4 -266 11 -281 14 -31 59 -57 99 -57 23 0 42 10 66 34 l34 34 0 252 0
252 34 34 34 34 252 0 252 0 34 34 c24 24 34 43 34 66 0 40 -26 85 -57 99 -15
7 -117 11 -286 10 -219 0 -269 -3 -307 -17z"/>
<path d="M1654 2439 c-29 -14 -54 -61 -54 -99 0 -23 10 -42 34 -66 l34 -34
252 0 252 0 34 -34 34 -34 0 -252 0 -252 34 -34 c24 -24 43 -34 66 -34 40 0
85 26 99 57 7 15 11 118 11 281 0 310 -3 325 -95 418 -90 91 -104 94 -419 93
-154 0 -270 -5 -282 -10z"/>
<path d="M593 2014 c-57 -29 -63 -56 -63 -309 0 -181 3 -232 15 -255 31 -59
36 -60 313 -60 l254 0 29 29 29 29 0 256 0 256 -29 32 -29 33 -244 3 c-206 2
-248 0 -275 -14z m367 -309 l0 -105 -105 0 -105 0 0 105 0 105 105 0 105 0 0
-105z"/>
<path d="M1443 2010 c-17 -10 -37 -28 -42 -39 -7 -12 -11 -113 -11 -271 l0
-252 29 -29 29 -29 254 0 c218 0 257 2 277 16 45 32 51 67 51 305 0 331 12
319 -327 319 -208 0 -231 -2 -260 -20z m367 -305 l0 -105 -105 0 -105 0 0 105
0 105 105 0 105 0 0 -105z"/>
<path d="M582 1154 c-48 -33 -52 -57 -52 -299 0 -337 -12 -325 319 -325 238 0
273 6 305 51 14 20 16 59 16 277 l0 254 -29 29 -29 29 -254 0 c-214 0 -257 -2
-276 -16z m378 -299 l0 -105 -105 0 -105 0 0 105 0 105 105 0 105 0 0 -105z"/>
<path d="M1419 1141 c-28 -28 -29 -33 -29 -124 0 -79 3 -98 20 -120 50 -64
146 -52 178 21 11 28 26 43 54 54 73 32 85 128 21 178 -22 17 -41 20 -120 20
-91 0 -96 -1 -124 -29z"/>
<path d="M1862 1154 c-45 -31 -52 -62 -52 -237 l0 -165 -30 -12 c-43 -18 -70
-56 -70 -99 0 -73 55 -111 161 -111 35 0 75 7 94 16 59 28 65 55 65 303 0 238
-6 273 -51 305 -30 20 -88 21 -117 0z"/>
<path d="M158 943 c-14 -9 -31 -27 -37 -40 -7 -15 -11 -119 -11 -281 0 -310 3
-326 95 -417 91 -92 107 -95 417 -95 163 0 266 4 281 11 31 14 57 59 57 99 0
23 -10 42 -34 66 l-34 34 -252 0 -252 0 -34 34 -34 34 0 252 0 252 -34 34
c-39 39 -83 45 -128 17z"/>
<path d="M2274 926 l-34 -34 0 -252 0 -252 -34 -34 -34 -34 -252 0 -252 0 -34
-34 c-24 -24 -34 -43 -34 -66 0 -40 26 -85 57 -99 15 -7 118 -11 281 -11 310
0 326 3 417 95 92 91 95 107 95 417 0 163 -4 266 -11 281 -14 31 -59 57 -99
57 -23 0 -42 -10 -66 -34z"/>
<path d="M1443 730 c-39 -23 -53 -48 -53 -93 0 -72 76 -121 143 -93 37 15 67
59 67 96 0 37 -30 81 -65 96 -45 18 -54 18 -92 -6z"/>
</g>
</svg>
