<?xml version="1.0" standalone="no"?>
<!DOCTYPE svg PUBLIC "-//W3C//DTD SVG 20010904//EN"
 "http://www.w3.org/TR/2001/REC-SVG-20010904/DTD/svg10.dtd">
<svg version="1.0" xmlns="http://www.w3.org/2000/svg"
 width="256.000000pt" height="256.000000pt" viewBox="0 0 256.000000 256.000000"
 preserveAspectRatio="xMidYMid meet">

<g transform="translate(0.000000,256.000000) scale(0.100000,-0.100000)"
fill="#000000" stroke="none">
<path d="M546 2434 c-247 -60 -435 -300 -436 -556 l0 -68 398 0 c219 0 401 2
403 5 3 2 -43 146 -101 320 l-105 315 -50 -1 c-27 0 -76 -7 -109 -15z"/>
<path d="M1038 2133 l107 -318 195 -3 c107 -1 199 -1 205 2 7 2 -29 124 -94
320 l-106 316 -207 0 -207 0 107 -317z"/>
<path d="M1678 2133 l107 -318 333 -3 332 -2 0 71 c0 252 -186 489 -436 553
-46 12 -111 16 -252 16 l-191 0 107 -317z"/>
<path d="M110 1108 c0 -404 3 -505 15 -557 47 -199 220 -373 421 -425 93 -24
1375 -24 1468 0 199 51 369 221 420 420 14 53 16 138 16 558 l0 496 -1170 0
-1170 0 0 -492z m1017 328 c292 -200 500 -351 510 -369 15 -27 16 -82 3 -107
-13 -24 -559 -407 -600 -422 -38 -13 -81 3 -110 40 -19 24 -20 42 -20 439 l0
415 29 29 c47 47 92 41 188 -25z"/>
</g>
</svg>
