<?xml version="1.0" standalone="no"?>
<!DOCTYPE svg PUBLIC "-//W3C//DTD SVG 20010904//EN"
 "http://www.w3.org/TR/2001/REC-SVG-20010904/DTD/svg10.dtd">
<svg version="1.0" xmlns="http://www.w3.org/2000/svg"
 width="200.000000pt" height="200.000000pt" viewBox="0 0 200.000000 200.000000"
 preserveAspectRatio="xMidYMid meet">

<g transform="translate(0.000000,200.000000) scale(0.100000,-0.100000)"
fill="#000000" stroke="none">
<path d="M1752 1981 c-12 -10 -22 -26 -22 -35 0 -9 -5 -16 -11 -16 -7 0 -10
-20 -7 -55 1 -30 2 -55 2 -55 -1 0 -27 11 -59 25 l-57 26 -656 -3 c-513 -2
-656 -6 -660 -15 -2 -7 -10 -13 -18 -13 -8 0 -14 -4 -14 -10 0 -5 -5 -10 -10
-10 -16 0 -100 -88 -100 -105 0 -8 -4 -15 -10 -15 -5 0 -10 -7 -10 -16 0 -8
-4 -13 -9 -10 -16 11 -21 -71 -21 -391 0 -221 3 -323 11 -323 5 0 7 -5 4 -10
-3 -6 1 -10 9 -10 9 0 16 -4 16 -10 0 -5 21 -10 46 -10 27 0 43 4 39 10 -3 6
-1 10 5 10 6 0 19 8 28 17 15 15 18 55 22 339 l5 322 47 41 46 41 600 0 c390
0 603 -4 607 -10 4 -6 -13 -10 -43 -10 -63 0 -113 -10 -106 -21 3 -5 -2 -9
-10 -9 -9 0 -16 -7 -16 -15 0 -8 -4 -15 -10 -15 -5 0 -10 -13 -10 -30 0 -16 5
-30 10 -30 6 0 10 -5 10 -11 0 -6 6 -17 14 -25 8 -8 19 -14 25 -14 6 0 11 -4
11 -10 0 -6 72 -10 195 -10 123 0 195 4 195 10 0 6 5 10 11 10 7 0 20 10 30
22 17 19 19 40 19 219 l0 198 -25 26 c-32 31 -91 34 -123 6z"/>
<path d="M943 1463 c-15 -3 -23 -12 -23 -24 0 -10 -4 -19 -10 -19 -6 0 -10
-63 -10 -170 l0 -170 -170 0 c-168 0 -171 0 -195 -25 -35 -34 -35 -96 0 -130
24 -25 27 -25 195 -25 l170 0 0 -166 0 -166 31 -29 c21 -20 42 -29 64 -29 35
0 75 28 75 54 0 9 5 16 10 16 6 0 10 60 10 160 l0 160 170 0 c168 0 171 0 195
25 19 18 25 35 25 65 0 30 -6 47 -25 65 -24 25 -27 25 -195 25 l-170 0 0 160
c0 100 -4 160 -10 160 -5 0 -10 7 -10 16 0 41 -55 61 -127 47z"/>
<path d="M1765 1050 c3 -5 -3 -10 -14 -10 -14 0 -21 -6 -21 -20 0 -11 -4 -20
-10 -20 -6 0 -10 -111 -10 -314 l0 -313 -50 -47 -49 -46 -593 0 c-477 1 -596
3 -611 14 -9 7 -17 16 -17 20 0 3 35 6 78 6 96 0 122 7 122 31 0 11 5 19 10
19 6 0 10 11 10 25 0 26 -39 75 -60 75 -5 0 -10 5 -10 10 0 6 -72 10 -195 10
-123 0 -195 -4 -195 -10 0 -5 -7 -10 -16 -10 -40 0 -44 -20 -43 -232 0 -112 3
-210 7 -219 6 -13 21 -16 77 -15 l70 1 3 87 c1 49 7 88 12 88 6 0 10 -4 10
-10 0 -5 7 -10 15 -10 8 0 15 -4 15 -10 0 -5 7 -10 16 -10 8 0 13 -4 9 -9 -11
-19 132 -22 744 -19 488 2 625 6 629 16 2 6 10 12 18 12 8 0 14 5 14 10 0 6 7
10 15 10 8 0 15 5 15 10 0 6 5 10 10 10 16 0 80 68 80 85 0 8 3 15 8 15 4 0
14 12 22 28 11 22 15 91 18 356 2 181 1 340 -3 353 -3 13 -12 23 -20 23 -8 0
-15 5 -15 10 0 6 -23 10 -51 10 -31 0 -48 -4 -44 -10z"/>
</g>
</svg>
